<svg width="714" height="550" viewBox="0 0 714 550" fill="none" xmlns="http://www.w3.org/2000/svg">
<path d="M635.046 392.7H376.992C374.774 392.696 372.648 391.813 371.079 390.245C369.511 388.676 368.628 386.55 368.624 384.332V8.36796C368.631 6.15224 369.516 4.02964 371.084 2.46422C372.652 0.898802 374.776 0.017922 376.992 0.0141602H635.046C637.262 0.017922 639.386 0.898802 640.954 2.46422C642.522 4.02964 643.406 6.15224 643.414 8.36796V384.332C643.41 386.55 642.527 388.676 640.959 390.245C639.39 391.813 637.264 392.696 635.046 392.7ZM376.992 0.37116C375.936 0.363632 374.89 0.56481 373.912 0.963139C372.934 1.36147 372.045 1.94909 371.295 2.69223C370.546 3.43536 369.95 4.31935 369.543 5.29339C369.136 6.26743 368.926 7.31231 368.924 8.36796V384.332C368.924 386.456 369.768 388.494 371.27 389.996C372.773 391.499 374.81 392.343 376.935 392.343H635.046C637.171 392.343 639.208 391.499 640.711 389.996C642.213 388.494 643.057 386.456 643.057 384.332V8.36796C643.057 6.24329 642.213 4.20564 640.711 2.70327C639.208 1.2009 637.171 0.356877 635.046 0.356877L376.992 0.37116Z" fill="#F0F0F0"/>
<path d="M337.408 392.7H79.2968C77.0786 392.696 74.9523 391.813 73.3838 390.245C71.8153 388.676 70.9325 386.55 70.9287 384.332V8.36808C70.9325 6.14989 71.8153 4.02363 73.3838 2.45513C74.9523 0.886625 77.0786 0.00377566 79.2968 0H337.408C339.626 0.00377566 341.752 0.886625 343.321 2.45513C344.889 4.02363 345.772 6.14989 345.776 8.36808V384.332C345.772 386.55 344.889 388.676 343.321 390.245C341.752 391.813 339.626 392.696 337.408 392.7ZM79.2968 0.371283C77.1746 0.37128 75.1391 1.21334 73.6371 2.71262C72.1352 4.21191 71.2895 6.24588 71.2857 8.36808V384.332C71.2857 386.457 72.1297 388.494 73.6321 389.997C75.1345 391.499 77.1721 392.343 79.2968 392.343H337.408C339.532 392.343 341.57 391.499 343.072 389.997C344.575 388.494 345.419 386.457 345.419 384.332V8.36808C345.419 6.24341 344.575 4.20577 343.072 2.7034C341.57 1.20103 339.532 0.357 337.408 0.357L79.2968 0.371283Z" fill="#F0F0F0"/>
<path d="M714 479.908H0V480.265H714V479.908Z" fill="#F0F0F0"/>
<path d="M124.236 443.479C124.236 443.479 110.741 446.464 112.812 437.053C114.883 427.643 114.668 424.201 109.185 419.917C103.701 415.633 98.1749 413.534 102.373 406.751C106.572 399.968 98.6033 394.699 94.4907 391.043C90.3781 387.388 95.0191 384.646 96.1043 377.749C97.1896 370.851 89.7783 371.894 89.1928 363.197C88.6073 354.501 97.4324 344.362 89.8497 332.41C89.8497 332.41 100.046 337.693 103.387 346.975C106.729 356.257 104.03 363.426 110.056 366.967C116.082 370.509 119.838 376.606 117.796 382.861C115.754 389.116 118.652 392.443 123.593 397.012C128.534 401.582 127.206 403.396 126.592 408.979C125.978 414.562 127.22 413.263 132.861 420.874C138.502 428.485 138.516 440.966 124.236 443.479Z" fill="#F0F0F0"/>
<path d="M126.107 443.051C126.099 443.004 126.099 442.956 126.107 442.908L99.0318 360.941C99.003 360.858 98.9913 360.769 98.9974 360.681C99.0035 360.593 99.0272 360.508 99.0672 360.429C99.1072 360.35 99.1626 360.281 99.2301 360.224C99.2976 360.167 99.3759 360.125 99.4603 360.099C99.6288 360.049 99.8099 360.068 99.9647 360.151C100.12 360.234 100.236 360.374 100.288 360.541L127.321 442.48C127.328 442.546 127.328 442.614 127.321 442.68L126.107 443.051Z" fill="#E0E0E0"/>
<path d="M148.512 443.308C148.512 443.308 161.935 446.279 159.936 436.911C157.937 427.543 158.094 424.059 163.549 419.775C169.004 415.491 174.502 413.42 170.318 406.68C166.134 399.94 174.073 394.699 178.157 391.072C182.241 387.445 177.643 384.703 176.558 377.835C175.473 370.966 182.841 372.008 183.427 363.369C184.012 354.729 175.23 344.634 182.77 332.738C182.77 332.738 172.631 337.993 169.304 347.232C165.976 356.472 168.661 363.597 162.678 367.11C156.694 370.623 152.939 376.692 154.981 382.918C157.023 389.144 154.124 392.457 149.269 396.998C144.414 401.539 145.67 403.339 146.284 408.894C146.898 414.448 145.656 413.178 140.044 420.732C134.432 428.286 134.232 440.809 148.512 443.308Z" fill="#F0F0F0"/>
<path d="M145.385 442.48C145.378 442.413 145.378 442.346 145.385 442.28L172.245 360.741C172.301 360.576 172.418 360.44 172.573 360.36C172.727 360.28 172.907 360.263 173.074 360.313C173.158 360.339 173.236 360.381 173.304 360.438C173.371 360.495 173.427 360.565 173.467 360.643C173.507 360.722 173.53 360.808 173.536 360.896C173.542 360.984 173.531 361.072 173.502 361.155L146.641 442.694V442.837L145.385 442.48Z" fill="#E0E0E0"/>
<path d="M133.632 441.595C133.632 441.595 118.181 440.324 123.451 430.899C128.72 421.474 129.734 417.718 125.278 411.307C120.823 404.895 115.611 400.797 122.422 394.942C129.234 389.087 122.422 380.79 119.181 375.507C115.939 370.223 121.866 368.838 125.336 361.812C128.806 354.786 120.495 353.43 122.765 343.934C125.036 334.437 137.845 326.498 133.689 311.175C133.689 311.175 142.843 320.215 143.343 331.267C143.842 342.32 138.573 349.103 143.857 354.886C149.14 360.67 151.14 368.452 146.87 374.479C142.6 380.505 144.599 385.031 148.298 391.615C151.996 398.198 150.054 399.654 147.541 405.438C145.028 411.221 146.798 410.207 150.311 420.26C153.824 430.313 149.84 443.694 133.632 441.595Z" fill="#F5F5F5"/>
<path d="M135.831 441.795C135.823 441.733 135.823 441.671 135.831 441.609L134.132 344.848C134.128 344.65 134.202 344.458 134.338 344.313C134.475 344.169 134.662 344.084 134.86 344.077C134.959 344.075 135.057 344.093 135.149 344.129C135.241 344.166 135.324 344.22 135.395 344.289C135.465 344.358 135.521 344.441 135.559 344.532C135.597 344.623 135.617 344.721 135.617 344.819L137.331 441.581C137.346 441.656 137.346 441.734 137.331 441.809L135.831 441.795Z" fill="#E0E0E0"/>
<path d="M175.644 434.126H100.131C99.6331 434.133 99.1438 434.259 98.7049 434.495C98.266 434.731 97.8905 435.07 97.6102 435.482C97.33 435.894 97.1532 436.367 97.0949 436.862C97.0366 437.357 97.0985 437.859 97.2754 438.325L98.3892 441.295L99.0889 443.18L101.117 448.563L101.831 450.434L103.916 455.975L104.615 457.845L112.941 479.908H162.992L171.303 457.845L172.003 455.975L174.087 450.434L174.801 448.563L176.829 443.18L177.529 441.295L178.643 438.325C178.824 437.847 178.885 437.333 178.82 436.826C178.754 436.32 178.565 435.838 178.268 435.422C177.971 435.007 177.576 434.671 177.119 434.445C176.661 434.219 176.154 434.109 175.644 434.126Z" fill="#E6E6E6"/>
<path d="M111.755 173.673H156.837C158.02 173.673 158.979 172.714 158.979 171.531V161.35C158.979 160.167 158.02 159.208 156.837 159.208H111.755C110.572 159.208 109.613 160.167 109.613 161.35V171.531C109.613 172.714 110.572 173.673 111.755 173.673Z" fill="#F5F5F5"/>
<path d="M84.8232 192.137H129.905C131.088 192.137 132.047 191.178 132.047 189.995V179.814C132.047 178.631 131.088 177.672 129.905 177.672H84.8232C83.6402 177.672 82.6812 178.631 82.6812 179.814V189.995C82.6812 191.178 83.6402 192.137 84.8232 192.137Z" fill="#F5F5F5"/>
<path d="M448.678 15.2939H403.596C402.413 15.2939 401.454 16.253 401.454 17.4359V27.6176C401.454 28.8006 402.413 29.7596 403.596 29.7596H448.678C449.861 29.7596 450.82 28.8006 450.82 27.6176V17.4359C450.82 16.253 449.861 15.2939 448.678 15.2939Z" fill="#F5F5F5"/>
<path d="M475.595 33.7437H430.513C429.33 33.7437 428.371 34.7027 428.371 35.8857V46.0673C428.371 47.2503 429.33 48.2093 430.513 48.2093H475.595C476.778 48.2093 477.737 47.2503 477.737 46.0673V35.8857C477.737 34.7027 476.778 33.7437 475.595 33.7437Z" fill="#F5F5F5"/>
<path d="M458.088 240.09H413.006C411.823 240.09 410.864 241.049 410.864 242.232V252.413C410.864 253.596 411.823 254.555 413.006 254.555H458.088C459.271 254.555 460.23 253.596 460.23 252.413V242.232C460.23 241.049 459.271 240.09 458.088 240.09Z" fill="#F5F5F5"/>
<path d="M511.938 240.09H466.856C465.673 240.09 464.714 241.049 464.714 242.232V252.413C464.714 253.596 465.673 254.555 466.856 254.555H511.938C513.121 254.555 514.08 253.596 514.08 252.413V242.232C514.08 241.049 513.121 240.09 511.938 240.09Z" fill="#F5F5F5"/>
<path d="M485.006 258.54H439.924C438.741 258.54 437.782 259.499 437.782 260.682V270.863C437.782 272.046 438.741 273.005 439.924 273.005H485.006C486.189 273.005 487.148 272.046 487.148 270.863V260.682C487.148 259.499 486.189 258.54 485.006 258.54Z" fill="#F5F5F5"/>
<path d="M624.593 31.002H511.752V143.842H624.593V31.002Z" fill="#E6E6E6"/>
<path d="M618.867 138.145V36.728L517.45 36.728V138.145H618.867Z" fill="#FAFAFA"/>
<path d="M561.375 115.111C561.375 115.111 579.939 76.9264 618.881 76.1553V138.145H568.173L561.375 115.111Z" fill="#F0F0F0"/>
<path d="M517.464 104.387C517.464 104.387 534.201 95.6046 551.222 102.059C572.642 110.142 584.994 138.145 584.994 138.145H517.464V104.387Z" fill="#F5F5F5"/>
<path d="M570.143 68.8723C570.143 72.4112 569.094 75.8706 567.128 78.8131C565.162 81.7555 562.367 84.0489 559.098 85.4032C555.828 86.7574 552.231 87.1118 548.76 86.4214C545.289 85.731 542.101 84.0268 539.598 81.5245C537.096 79.0221 535.392 75.8339 534.701 72.3631C534.011 68.8922 534.365 65.2945 535.72 62.025C537.074 58.7555 539.367 55.9611 542.31 53.995C545.252 52.0289 548.712 50.9795 552.25 50.9795C556.996 50.9795 561.547 52.8646 564.903 56.2202C568.258 59.5757 570.143 64.1269 570.143 68.8723Z" fill="white"/>
<path d="M334.68 31.7446H235.677V223.396H334.68V31.7446Z" fill="#E6E6E6"/>
<path d="M328.968 217.684V37.4565L241.389 37.4565V217.684H328.968Z" fill="#FAFAFA"/>
<path d="M271.706 111.198C281.588 111.198 289.598 103.187 289.598 93.3054C289.598 83.4235 281.588 75.4126 271.706 75.4126C261.824 75.4126 253.813 83.4235 253.813 93.3054C253.813 103.187 261.824 111.198 271.706 111.198Z" fill="white"/>
<path d="M257.754 217.698C257.754 217.698 279.888 111.184 328.954 101.545V217.698H257.754Z" fill="#F0F0F0"/>
<path d="M241.332 154.438C241.332 154.438 252.613 143.571 270.492 150.069C304.078 162.292 322.828 217.699 322.828 217.699H241.332V154.438Z" fill="#F5F5F5"/>
<path d="M362.155 549.466C518.996 549.466 646.141 545.981 646.141 541.683C646.141 537.385 518.996 533.9 362.155 533.9C205.314 533.9 78.1687 537.385 78.1687 541.683C78.1687 545.981 205.314 549.466 362.155 549.466Z" fill="#F5F5F5"/>
<path d="M611.941 290.284H480.965V536.014H611.941V290.284Z" fill="#407BFF"/>
<path d="M480.965 365.268H473.582V372.651H480.965V365.268Z" fill="#263238"/>
<path d="M480.965 303.421H473.582V310.804H480.965V303.421Z" fill="#263238"/>
<path opacity="0.2" d="M595.19 372.651H480.965V373.922H595.19V372.651Z" fill="black"/>
<path d="M595.19 290.284H593.919V536.014H595.19V290.284Z" fill="#263238"/>
<path d="M611.941 234.635V290.327H595.19V251.385C595.19 249.185 595.624 247.007 596.465 244.975C597.307 242.943 598.541 241.096 600.096 239.541C601.652 237.985 603.498 236.752 605.531 235.91C607.563 235.068 609.741 234.635 611.941 234.635Z" fill="#407BFF"/>
<path opacity="0.5" d="M611.941 234.635V290.327H595.19V251.385C595.19 249.185 595.624 247.007 596.465 244.975C597.307 242.943 598.541 241.096 600.096 239.541C601.652 237.985 603.498 236.752 605.531 235.91C607.563 235.068 609.741 234.635 611.941 234.635Z" fill="white"/>
<path d="M532.073 286.028H495.002V290.284H532.073V286.028Z" fill="#263238"/>
<path d="M584.909 286.028H547.838V290.284H584.909V286.028Z" fill="#263238"/>
<path d="M513.609 536.014H497.858V541.683H513.609V536.014Z" fill="#263238"/>
<path d="M590.721 536.014H574.97V541.683H590.721V536.014Z" fill="#263238"/>
<path d="M163.52 289.327H237.776C238.188 289.327 238.593 289.23 238.96 289.043C239.326 288.856 239.643 288.585 239.884 288.252C240.125 287.919 240.284 287.533 240.347 287.127C240.41 286.72 240.376 286.305 240.247 285.914L224.068 236.848C223.897 236.327 223.566 235.873 223.123 235.55C222.679 235.227 222.146 235.052 221.597 235.049H147.412C147.001 235.048 146.596 235.146 146.229 235.333C145.863 235.52 145.546 235.791 145.305 236.124C145.064 236.457 144.905 236.843 144.842 237.249C144.779 237.656 144.813 238.071 144.942 238.462L161.05 287.542C161.225 288.06 161.557 288.509 162 288.829C162.443 289.149 162.974 289.323 163.52 289.327Z" fill="#263238"/>
<path opacity="0.3" d="M194.322 264.737C194.836 268.121 192.894 270.849 190.124 270.849C187.354 270.849 184.569 268.121 184.041 264.737C183.512 261.352 185.469 258.639 188.239 258.639C191.009 258.639 193.794 261.367 194.322 264.737Z" fill="white"/>
<path d="M264.18 288.256L265.751 292.983C265.851 293.313 265.873 293.662 265.814 294.002C265.755 294.343 265.617 294.664 265.412 294.942C265.207 295.219 264.939 295.445 264.631 295.601C264.323 295.756 263.983 295.838 263.637 295.839H165.334C164.869 295.841 164.415 295.695 164.038 295.423C163.661 295.151 163.38 294.767 163.235 294.325L161.193 288.256H264.18Z" fill="#263238"/>
<g opacity="0.3">
<path opacity="0.4" d="M264.18 288.256L265.751 292.983C265.851 293.313 265.873 293.662 265.814 294.002C265.755 294.343 265.617 294.664 265.412 294.942C265.207 295.219 264.939 295.445 264.631 295.601C264.323 295.756 263.983 295.838 263.637 295.839H165.334C164.869 295.841 164.415 295.695 164.038 295.423C163.661 295.151 163.38 294.767 163.235 294.325L161.193 288.256H264.18Z" fill="white"/>
</g>
<path d="M300.508 295.867H118.967V310.804H300.508V295.867Z" fill="#407BFF"/>
<path d="M213.5 310.804H205.989V536.014H213.5V310.804Z" fill="#263238"/>
<path d="M262.266 541.612H157.251C159.066 538.667 161.604 536.236 164.623 534.549C167.642 532.862 171.043 531.975 174.502 531.973H244.988C248.452 531.974 251.858 532.862 254.883 534.552C257.907 536.241 260.449 538.677 262.266 541.626V541.612Z" fill="#407BFF"/>
<path d="M226.966 107.271H95.4189V120.966H226.966V107.271Z" fill="#407BFF"/>
<path d="M105.915 120.966L111.941 134.546H120.823V120.966H105.915Z" fill="#407BFF"/>
<path d="M105.915 120.966L111.941 134.546H120.823V120.966H105.915Z" fill="#407BFF"/>
<path opacity="0.3" d="M105.915 120.966L111.941 134.546H120.823V120.966H105.915Z" fill="black"/>
<path d="M216.47 120.966L210.444 134.546H201.562V120.966H216.47Z" fill="#407BFF"/>
<path opacity="0.3" d="M216.47 120.966L210.444 134.546H201.562V120.966H216.47Z" fill="black"/>
<path d="M136.203 73.1706V47.6236C136.216 47.5342 136.21 47.4428 136.185 47.3558C136.16 47.2689 136.117 47.1883 136.058 47.1197C135.999 47.051 135.926 46.9959 135.844 46.9582C135.761 46.9204 135.672 46.9009 135.581 46.9009C135.491 46.9009 135.402 46.9204 135.319 46.9582C135.237 46.9959 135.164 47.051 135.105 47.1197C135.046 47.1883 135.002 47.2689 134.978 47.3558C134.953 47.4428 134.947 47.5342 134.96 47.6236V73.1706H136.203Z" fill="#407BFF"/>
<g opacity="0.3">
<path d="M136.203 73.1706V47.6236C136.216 47.5342 136.21 47.4428 136.185 47.3558C136.16 47.2689 136.117 47.1883 136.058 47.1197C135.999 47.051 135.926 46.9959 135.844 46.9582C135.761 46.9204 135.672 46.9009 135.581 46.9009C135.491 46.9009 135.402 46.9204 135.319 46.9582C135.237 46.9959 135.164 47.051 135.105 47.1197C135.046 47.1883 135.002 47.2689 134.978 47.3558C134.953 47.4428 134.947 47.5342 134.96 47.6236V73.1706H136.203Z" fill="black"/>
</g>
<path d="M125.236 102.53L125.864 104.843L125.992 105.329L126.521 107.257H144.642L145.17 105.329L145.299 104.843L145.927 102.53L146.056 102.03L152.268 79.0252L152.396 78.5397L153.024 76.2263L153.153 75.7265L153.838 73.1704H117.324L118.01 75.7265L118.138 76.2263L118.767 78.5397L118.895 79.0252L125.107 102.03L125.236 102.53Z" fill="#263238"/>
<path d="M133.375 56.42C133.721 56.5072 134.085 56.4869 134.42 56.362C134.754 56.237 135.042 56.0132 135.246 55.7203C135.392 55.5274 135.49 55.3021 135.531 55.0634C135.554 54.9359 135.554 54.8054 135.531 54.6779C135.532 54.267 135.391 53.8686 135.132 53.5498C132.761 50.6938 120.852 36.885 115.225 42.6541C108.528 49.637 126.849 54.835 133.375 56.42Z" fill="#407BFF"/>
<g opacity="0.3">
<path d="M122.808 48.3519L135.246 55.7061C135.392 55.5132 135.49 55.2879 135.531 55.0492L123.179 47.7379C123.098 47.691 123.001 47.6783 122.91 47.7023C122.819 47.7264 122.741 47.7854 122.694 47.8664C122.668 47.9054 122.65 47.9492 122.642 47.9952C122.634 48.0412 122.635 48.0883 122.646 48.1338C122.657 48.1793 122.677 48.2221 122.704 48.2596C122.732 48.2971 122.768 48.3285 122.808 48.3519Z" fill="black"/>
</g>
<path d="M135.574 61.5178C135.56 61.646 135.56 61.7752 135.574 61.9034C135.63 62.1401 135.732 62.3634 135.874 62.5603C136.083 62.8472 136.372 63.0665 136.705 63.1908C137.037 63.3152 137.399 63.3393 137.745 63.26C144.271 61.6606 162.606 56.4627 155.838 49.4941C150.254 43.7821 138.316 57.5194 135.946 60.3754C135.7 60.7051 135.569 61.1066 135.574 61.5178Z" fill="#407BFF"/>
<path opacity="0.3" d="M135.66 61.9038C135.715 62.1405 135.817 62.3638 135.96 62.5606L148.398 55.2065C148.475 55.1516 148.529 55.0704 148.55 54.9783C148.571 54.8861 148.558 54.7895 148.512 54.7066C148.489 54.6662 148.457 54.631 148.42 54.6032C148.382 54.5753 148.339 54.5555 148.294 54.5448C148.248 54.5341 148.201 54.5328 148.155 54.541C148.109 54.5492 148.065 54.5667 148.027 54.5924L135.66 61.9038Z" fill="black"/>
<path d="M134.232 47.5094C134.285 47.922 134.476 48.3045 134.775 48.5946C134.867 48.684 134.968 48.7652 135.075 48.8374C135.287 48.9581 135.519 49.0403 135.76 49.0802C136.114 49.124 136.472 49.0635 136.792 48.9062C137.112 48.749 137.378 48.5017 137.559 48.1948C140.901 42.3828 149.783 25.5182 140.073 25.6038C132.019 25.661 133.775 43.8394 134.232 47.5094Z" fill="#407BFF"/>
<g opacity="0.3">
<path d="M135.06 48.8372C135.273 48.958 135.505 49.0401 135.746 49.08L139.001 34.9999C139.019 34.9074 139.001 34.8117 138.95 34.7322C138.9 34.6526 138.821 34.5952 138.73 34.5715C138.684 34.561 138.637 34.5597 138.59 34.5676C138.544 34.5756 138.499 34.5927 138.459 34.6179C138.42 34.6431 138.385 34.676 138.358 34.7146C138.331 34.7532 138.312 34.7968 138.302 34.8428L135.06 48.8372Z" fill="black"/>
</g>
<path d="M133.375 71.0856C133.721 71.1727 134.085 71.1525 134.42 71.0275C134.754 70.9025 135.042 70.6787 135.246 70.3859C135.392 70.1929 135.49 69.9676 135.531 69.729C135.554 69.6015 135.554 69.4709 135.531 69.3434C135.532 68.9326 135.391 68.5341 135.132 68.2153C132.761 65.3593 120.852 51.5505 115.225 57.3197C108.528 64.3026 126.849 69.5005 133.375 71.0856Z" fill="#407BFF"/>
<g opacity="0.3">
<path d="M122.808 63.0316L135.246 70.3858C135.392 70.1928 135.49 69.9676 135.531 69.7289L123.179 62.4176C123.098 62.3707 123.001 62.3579 122.91 62.382C122.819 62.4061 122.741 62.465 122.694 62.5461C122.668 62.5851 122.65 62.6289 122.642 62.6749C122.634 62.7208 122.635 62.768 122.646 62.8135C122.657 62.859 122.677 62.9018 122.704 62.9393C122.732 62.9768 122.768 63.0082 122.808 63.0316Z" fill="black"/>
</g>
<path d="M161.05 97.2895H159.736V95.3188H209.502C211.036 95.3939 212.483 96.0563 213.543 97.1688C214.602 98.2813 215.193 99.7587 215.193 101.295C215.193 102.831 214.602 104.309 213.543 105.421C212.483 106.534 211.036 107.196 209.502 107.271H159.736V105.572H161.05V97.2895Z" fill="#407BFF"/>
<path d="M160.707 97.2896V105.572H206.403C206.939 105.565 207.469 105.451 207.962 105.239C208.454 105.027 208.9 104.72 209.274 104.335C209.648 103.951 209.943 103.496 210.141 102.998C210.34 102.5 210.438 101.967 210.43 101.431C210.439 100.335 210.018 99.2792 209.259 98.4891C208.886 98.1099 208.442 97.8085 207.952 97.6026C207.461 97.3967 206.935 97.2903 206.403 97.2896H160.707Z" fill="white"/>
<path d="M160.707 99.3745V100.645H205.189C205.356 100.645 205.516 100.579 205.634 100.461C205.751 100.344 205.818 100.184 205.818 100.017C205.818 99.8491 205.752 99.6878 205.635 99.5677C205.517 99.4476 205.357 99.3782 205.189 99.3745H160.707Z" fill="#E6E6E6"/>
<path d="M160.707 102.501V103.758H205.189C205.356 103.758 205.516 103.692 205.634 103.574C205.751 103.456 205.818 103.296 205.818 103.13C205.818 102.963 205.751 102.803 205.634 102.685C205.516 102.568 205.356 102.501 205.189 102.501H160.707Z" fill="#E6E6E6"/>
<path d="M161.05 85.3368H159.736V83.3662H209.502C211.036 83.4412 212.483 84.1036 213.543 85.2161C214.602 86.3287 215.193 87.8061 215.193 89.3424C215.193 90.8787 214.602 92.3561 213.543 93.4686C212.483 94.5812 211.036 95.2435 209.502 95.3186H159.736V93.6192H161.05V85.3368Z" fill="#407BFF"/>
<g opacity="0.3">
<path d="M161.05 85.3368H159.736V83.3662H209.502C211.036 83.4412 212.483 84.1036 213.543 85.2161C214.602 86.3287 215.193 87.8061 215.193 89.3424C215.193 90.8787 214.602 92.3561 213.543 93.4686C212.483 94.5812 211.036 95.2435 209.502 95.3186H159.736V93.6192H161.05V85.3368Z" fill="black"/>
</g>
<path d="M160.707 85.3369V93.6193H206.403C206.939 93.6119 207.469 93.4988 207.962 93.2867C208.454 93.0745 208.9 92.7674 209.274 92.3828C209.648 91.9983 209.943 91.5438 210.141 91.0454C210.34 90.5471 210.438 90.0145 210.43 89.4781C210.438 88.3867 210.018 87.3357 209.259 86.5507C208.889 86.167 208.445 85.8617 207.955 85.6532C207.464 85.4446 206.936 85.3371 206.403 85.3369H160.707Z" fill="white"/>
<path d="M160.707 87.436V88.6927H205.189C205.356 88.6927 205.516 88.6265 205.634 88.5086C205.751 88.3908 205.818 88.231 205.818 88.0644C205.818 87.8977 205.751 87.7379 205.634 87.6201C205.516 87.5022 205.356 87.436 205.189 87.436H160.707Z" fill="#E6E6E6"/>
<path d="M160.707 90.5493V91.8202H205.189C205.357 91.8165 205.517 91.7472 205.635 91.627C205.752 91.5069 205.818 91.3456 205.818 91.1776C205.818 91.011 205.751 90.8512 205.634 90.7334C205.516 90.6155 205.356 90.5493 205.189 90.5493H160.707Z" fill="#E6E6E6"/>
<path d="M462.472 79.6251C462.482 83.5702 461.471 87.4508 459.536 90.889C457.601 94.3271 454.809 97.2058 451.432 99.2446C448.055 101.283 444.207 102.413 440.263 102.523C436.319 102.634 432.414 101.721 428.928 99.8742L420.36 105.586L423.516 95.8615C420.848 93.2141 418.875 89.9494 417.77 86.3568C416.666 82.7642 416.465 78.9546 417.185 75.2657C417.905 71.5768 419.524 68.1226 421.899 65.2091C424.273 62.2956 427.33 60.0129 430.797 58.5633C434.265 57.1136 438.037 56.5418 441.778 56.8986C445.52 57.2553 449.116 58.5296 452.247 60.6084C455.378 62.6872 457.948 65.5064 459.73 68.8161C461.511 72.1258 462.448 75.8238 462.458 79.5823L462.472 79.6251Z" fill="#407BFF"/>
<g opacity="0.5">
<path d="M462.472 79.6251C462.482 83.5702 461.471 87.4508 459.536 90.889C457.601 94.3271 454.809 97.2058 451.432 99.2446C448.055 101.283 444.207 102.413 440.263 102.523C436.319 102.634 432.414 101.721 428.928 99.8742L420.36 105.586L423.516 95.8615C420.848 93.2141 418.875 89.9494 417.77 86.3568C416.666 82.7642 416.465 78.9546 417.185 75.2657C417.905 71.5768 419.524 68.1226 421.899 65.2091C424.273 62.2956 427.33 60.0129 430.797 58.5633C434.265 57.1136 438.037 56.5418 441.778 56.8986C445.52 57.2553 449.116 58.5296 452.247 60.6084C455.378 62.6872 457.948 65.5064 459.73 68.8161C461.511 72.1258 462.448 75.8238 462.458 79.5823L462.472 79.6251Z" fill="white"/>
</g>
<path d="M439.596 82.481C441.173 82.481 442.452 81.2024 442.452 79.625C442.452 78.0477 441.173 76.769 439.596 76.769C438.018 76.769 436.74 78.0477 436.74 79.625C436.74 81.2024 438.018 82.481 439.596 82.481Z" fill="white"/>
<path d="M429.956 82.481C431.534 82.481 432.812 81.2024 432.812 79.625C432.812 78.0477 431.534 76.769 429.956 76.769C428.379 76.769 427.1 78.0477 427.1 79.625C427.1 81.2024 428.379 82.481 429.956 82.481Z" fill="white"/>
<path d="M449.234 82.481C450.812 82.481 452.09 81.2024 452.09 79.625C452.09 78.0477 450.812 76.769 449.234 76.769C447.657 76.769 446.378 78.0477 446.378 79.625C446.378 81.2024 447.657 82.481 449.234 82.481Z" fill="white"/>
<path d="M343.348 142.885L343.134 143.299L333.624 161.963C328.04 159.293 322.614 156.423 317.273 153.395C314.16 151.625 311.076 149.797 307.991 147.898C303.793 145.313 299.68 142.614 295.453 139.515L293.854 138.344L292.197 137.002L291.355 136.302L290.341 135.417C289.67 134.817 289.199 134.317 288.627 133.746C286.614 131.633 285 129.648 283.415 127.648C277.189 119.652 271.877 111.612 266.608 103.444C261.338 95.2757 256.44 86.9077 251.685 78.4825L260.439 72.4849L278.774 94.5046C284.857 101.773 290.998 109.127 297.21 115.739C298.738 117.367 300.323 118.966 301.736 120.194C302.051 120.437 302.436 120.794 302.679 120.951L303.05 121.208L303.65 121.579L304.907 122.351L306.335 123.179C310.105 125.364 314.26 127.463 318.387 129.691C324.784 133.046 331.325 136.374 337.751 139.815C339.45 140.729 341.149 141.643 342.82 142.571L343.348 142.885Z" fill="#407BFF"/>
<path opacity="0.2" d="M342.791 142.6L343.134 143.328L333.624 161.992C328.04 159.322 322.614 156.452 317.273 153.424C319.686 142.457 331.553 140.272 337.722 139.887L342.791 142.6Z" fill="black"/>
<path d="M253.227 81.1959C253.227 81.1959 244.217 76.8119 239.761 74.927C235.706 73.2134 230.693 69.215 231.293 66.6017C233.635 56.6057 246.073 64.7025 246.073 64.7025L260.353 72.2994C260.653 75.3125 257.154 79.4252 253.227 81.1959Z" fill="#FFB573"/>
<path d="M196.122 58.1908L194.836 57.8195L194.279 59.733L242.831 73.7703C244.379 74.2153 246.039 74.0275 247.448 73.2482C248.856 72.4689 249.898 71.1619 250.343 69.6148C250.788 68.0677 250.6 66.4072 249.821 64.9985C249.041 63.5899 247.734 62.5485 246.187 62.1035L197.635 48.0806L197.15 49.7371L198.435 50.1083L196.122 58.1908Z" fill="#407BFF"/>
<path d="M195.779 58.0908L198.121 50.0083L242.66 62.8603C243.182 63.0171 243.667 63.2754 244.089 63.6203C244.511 63.9651 244.861 64.3898 245.118 64.8701C245.375 65.3503 245.535 65.8765 245.589 66.4187C245.643 66.9609 245.589 67.5083 245.43 68.0297C245.125 69.0954 244.419 70.0014 243.46 70.5572C242.991 70.8284 242.473 71.0023 241.935 71.0686C241.398 71.1348 240.853 71.092 240.332 70.9428L195.779 58.0908Z" fill="white"/>
<path d="M196.379 56.0489L196.736 54.8208L240.132 67.3586C240.212 67.3816 240.287 67.4202 240.352 67.4722C240.417 67.5243 240.471 67.5887 240.511 67.6618C240.551 67.7348 240.576 67.8151 240.584 67.8979C240.593 67.9807 240.585 68.0644 240.561 68.144C240.514 68.3061 240.406 68.4434 240.259 68.5262C240.112 68.609 239.938 68.6308 239.775 68.5867L196.379 56.0489Z" fill="#D6D6D6"/>
<path d="M197.25 53.0074L197.607 51.7793L241.004 64.3171C241.085 64.3385 241.161 64.376 241.228 64.4274C241.294 64.4788 241.35 64.543 241.391 64.6162C241.432 64.6895 241.458 64.7702 241.468 64.8538C241.477 64.9373 241.47 65.0219 241.446 65.1025C241.423 65.1844 241.384 65.2608 241.331 65.3275C241.279 65.3942 241.213 65.4497 241.139 65.4908C241.064 65.532 240.983 65.558 240.898 65.5674C240.814 65.5767 240.728 65.5692 240.647 65.5452L197.25 53.0074Z" fill="#D6D6D6"/>
<path d="M260.367 72.2996C260.367 72.2996 252.927 64.06 250.814 63.4031C248.7 62.7462 237.705 63.96 238.776 65.4309C239.847 66.9017 248.329 69.058 248.329 69.058L252.385 72.3281L260.367 72.2996Z" fill="#FFB573"/>
<path d="M395.827 151.039L394.299 150.382C391.829 149.369 389.358 148.269 386.902 147.198L384.76 146.255L381.833 144.985L373.436 162.863L373.336 163.077C379.934 166.276 386.517 169.175 393.328 171.802L395.813 172.745C396.57 173.045 397.341 173.316 398.112 173.602L399.783 174.201C403.553 175.629 407.394 176.815 411.378 177.957H411.464L411.792 178.043L395.827 151.039ZM396.57 132.575C396.727 132.832 396.884 133.089 397.055 133.346C397.203 133.359 397.351 133.359 397.498 133.346C399.611 134.689 405.009 129.748 405.323 126.492C404.667 125.792 404.01 125.064 403.339 124.407C403.11 124.164 402.882 123.907 402.639 123.665L397.084 127.949L394.842 129.705C394.867 129.762 394.9 129.815 394.942 129.862L396.57 132.575Z" fill="#407BFF"/>
<path d="M439.596 171.503C439.596 171.831 439.596 172.16 439.596 172.502L439.524 173.031C439.481 173.3 439.424 173.567 439.353 173.83C439.281 174.087 439.196 174.359 439.11 174.601C439.024 174.844 438.91 175.13 438.724 175.544C438.345 176.296 437.864 176.992 437.296 177.614C436.648 178.336 435.892 178.952 435.055 179.442C434.327 179.851 433.549 180.163 432.741 180.371L431.999 180.542L431.499 180.628C429.611 180.938 427.692 181.01 425.787 180.842C424.216 180.728 422.802 180.528 421.503 180.299C418.79 179.842 416.291 179.257 413.863 178.628C413.192 178.443 412.535 178.271 411.878 178.071L395.956 151.039C399.626 152.624 403.282 154.181 406.937 155.68C408.936 156.494 410.936 157.294 412.921 158.051L409.836 153.353C405.571 146.746 401.33 140.082 397.113 133.361C397.26 133.373 397.408 133.373 397.555 133.361C399.669 134.703 405.067 129.762 405.381 126.506C410.94 132.39 416.343 138.406 421.588 144.556C424.659 148.112 427.657 151.696 430.628 155.48C432.127 157.351 433.584 159.25 435.04 161.292C435.783 162.321 436.468 163.363 437.296 164.605C437.772 165.359 438.201 166.142 438.582 166.947C438.724 167.233 438.853 167.533 439.024 167.975C439.284 168.687 439.466 169.424 439.567 170.175C439.611 170.616 439.621 171.06 439.596 171.503Z" fill="#407BFF"/>
<path opacity="0.2" d="M412.478 179.314L412.335 179.142L411.335 177.957L393.528 156.708L388.802 151.068L384.76 146.255L386.902 147.198C389.359 148.269 391.829 149.368 394.299 150.382L395.827 151.039L411.75 178.071L412.478 179.314Z" fill="black"/>
<path d="M405.324 126.564C405.009 129.819 399.612 134.76 397.498 133.418C397.351 133.431 397.203 133.431 397.055 133.418C396.737 133.371 396.425 133.284 396.127 133.161C395.476 132.921 394.854 132.61 394.271 132.233C392.471 131.182 390.99 129.661 389.987 127.834C389.902 127.667 389.84 127.49 389.801 127.306C389.373 125.221 389.159 122.879 388.73 121.051C388.677 120.892 388.674 120.72 388.723 120.559C388.772 120.397 388.869 120.255 389.002 120.152C389.242 120.025 389.509 119.959 389.78 119.959C390.051 119.959 390.318 120.025 390.558 120.152C390.854 120.263 391.129 120.422 391.372 120.623C391.415 120.638 391.45 120.669 391.472 120.709C391.566 120.769 391.649 120.847 391.715 120.937C392.188 121.395 392.528 121.972 392.7 122.608C393.328 125.764 398.298 125.107 398.298 125.107L400.326 119.295L401.025 117.267L402.325 113.526C402.362 113.555 402.395 113.589 402.425 113.626C402.425 113.726 402.525 113.826 402.568 113.911C403.367 115.782 404.724 123.693 405.238 125.578C405.34 125.896 405.369 126.233 405.324 126.564Z" fill="#FFB573"/>
<path d="M403.124 124.821L395.984 133.318C395.909 133.434 395.802 133.525 395.675 133.58C395.549 133.635 395.409 133.651 395.273 133.627C395.137 133.603 395.011 133.539 394.912 133.443C394.812 133.347 394.743 133.224 394.714 133.09L386.474 114.04C386.343 113.702 386.299 113.337 386.346 112.977C386.394 112.618 386.531 112.276 386.745 111.984L393.885 103.416C394.314 102.916 394.885 103.03 395.156 103.658L403.367 122.665C403.521 123.014 403.579 123.397 403.537 123.776C403.494 124.155 403.352 124.516 403.124 124.821Z" fill="#263238"/>
<g opacity="0.3">
<path d="M401.339 123.036L395.556 129.948C395.328 130.205 395.042 130.147 394.899 129.819L387.688 113.111C387.621 112.937 387.6 112.749 387.624 112.565C387.649 112.38 387.72 112.205 387.831 112.055L393.685 105.143C393.9 104.886 394.199 104.943 394.342 105.272L401.482 121.965C401.553 122.141 401.576 122.332 401.551 122.519C401.526 122.707 401.453 122.885 401.339 123.036Z" fill="white"/>
</g>
<path d="M402.468 113.683C402.195 112.921 401.715 112.25 401.081 111.745C400.448 111.241 399.687 110.923 398.883 110.827C397.684 110.827 397.212 116.153 397.555 117.41C398.255 120.009 400.126 115.168 400.126 115.168L401.168 117.553C402.253 116.339 403.296 115.239 402.468 113.683Z" fill="#FFB573"/>
<path d="M400.525 108.913C399.748 107.859 398.6 107.14 397.312 106.9C396.113 106.9 395.542 111.912 395.884 113.155C396.584 115.754 398.569 111.241 398.569 111.241L401.082 113.968C402.168 112.74 401.682 111.027 400.525 108.913Z" fill="#FFB573"/>
<path d="M398.569 106.386C398.412 105.958 397.441 103.858 396.241 103.887C395.042 103.916 394.057 107.843 394.399 109.099C395.099 111.698 397.084 107.186 397.084 107.186L399.597 109.913C400.026 109.228 399.726 108.499 398.569 106.386Z" fill="#FFB573"/>
<path d="M480.95 216.984L477.895 226.566C467.965 224.091 458.064 221.544 448.192 218.926C443.251 217.598 438.31 216.256 433.341 214.842C428.371 213.429 423.459 211.986 418.261 210.201C417.576 209.944 416.947 209.73 416.233 209.444L415.162 209.016L413.949 208.459C412.767 207.899 411.651 207.21 410.621 206.403L409.479 205.475C409.179 205.203 408.865 204.946 408.565 204.661C406.337 202.547 404.638 200.605 402.853 198.635L400.84 196.378L399.269 194.565C397.355 192.366 395.485 190.166 393.557 187.967L392.7 186.868C386.088 179 379.648 171.16 373.251 163.063L390.244 150.025C396.256 158.079 402.353 166.205 408.479 174.159C411.55 178.128 414.634 182.084 417.747 185.854C419.275 187.725 420.903 189.61 422.245 191.123C422.402 191.28 422.531 191.466 422.688 191.652L423.288 192.323L423.945 192.694C424.373 192.951 424.916 193.222 425.373 193.479C429.557 195.593 434.212 197.649 438.796 199.648C443.38 201.648 448.064 203.618 452.747 205.575C462.087 209.444 471.526 213.257 480.95 216.984Z" fill="#407BFF"/>
<path opacity="0.2" d="M400.825 196.378L399.255 194.565C397.341 192.366 395.47 190.167 393.543 187.967L392.971 158.851C393.286 159.707 395.37 169.004 398.683 174.83C403.253 182.812 403.996 191.994 400.825 196.378Z" fill="black"/>
<path d="M477.895 226.566C483.488 227.422 489.122 227.993 494.773 228.28C499.529 228.28 509.439 223.111 508.268 221.326C507.097 219.541 494.716 217.513 494.716 217.513L478.851 216.085C476.952 218.455 475.595 222.996 477.895 226.566Z" fill="#FFB573"/>
<path d="M517.618 220.598L485.411 219.828L485.335 223.026L517.541 223.796L517.618 220.598Z" fill="#263238"/>
<path d="M515.624 218.598L562.034 219.526L562.001 221.197C561.948 223.848 560.844 226.37 558.932 228.207C557.02 230.044 554.456 231.046 551.805 230.993L525.387 230.465C522.736 230.412 520.214 229.308 518.377 227.396C516.54 225.484 515.538 222.92 515.591 220.269L515.624 218.598Z" fill="#263238"/>
<path d="M535.114 217.998C535.114 217.998 524.876 209.787 532.972 202.29C541.069 194.793 541.298 188.967 535.114 183.255C535.114 183.255 544.396 187.539 547.724 196.321C551.051 205.103 534.872 211.986 535.114 217.998Z" fill="#407BFF"/>
<path opacity="0.8" d="M535.114 217.998C535.114 217.998 524.876 209.787 532.972 202.29C541.069 194.793 541.298 188.967 535.114 183.255C535.114 183.255 544.396 187.539 547.724 196.321C551.051 205.103 534.872 211.986 535.114 217.998Z" fill="white"/>
<path d="M478.851 216.127C478.851 216.127 489.404 213.271 491.518 213.914C493.631 214.557 502.028 221.411 500.357 222.054C498.686 222.696 490.532 219.912 490.532 219.912L485.42 220.44L478.851 216.127Z" fill="#FFB573"/>
<path d="M384.503 513.608L387.945 530.045H396.598L397.541 513.608H384.503Z" fill="#FFB573"/>
<path d="M421.331 541.683C421.046 536.314 418.747 534.715 415.848 534.543C412.949 534.372 402.168 530.73 402.168 530.73C402.168 530.73 400.04 527.332 398.069 526.646C396.099 525.961 394.128 527.974 394.128 527.974L388.716 527.317C388.716 527.317 387.174 524.861 385.974 527.003C384.132 530.331 384.032 539.527 384.118 541.683H421.331Z" fill="#407BFF"/>
<path d="M420.675 540.284H413.934L384.418 540.141C384.046 540.141 384.132 539.555 384.503 539.57H386.503V539.484C386.937 538.87 387.237 538.171 387.384 537.434C387.531 536.696 387.522 535.936 387.356 535.202C387.191 534.468 386.873 533.777 386.423 533.174C385.973 532.571 385.402 532.07 384.746 531.702C384.446 531.53 384.832 531.03 385.117 531.216C385.817 531.615 386.427 532.154 386.908 532.8C387.39 533.445 387.733 534.184 387.915 534.968C388.097 535.753 388.116 536.567 387.968 537.358C387.821 538.15 387.512 538.903 387.059 539.57H391.272L420.775 539.727C421.146 539.713 421.046 540.284 420.675 540.284Z" fill="black"/>
<path d="M400.468 533.058C402.068 531.245 404.324 530.731 405.909 532.101C406.166 532.316 406.537 531.816 406.28 531.602C404.452 530.045 401.825 530.716 400.026 532.758C399.754 533.058 400.197 533.344 400.468 533.058Z" fill="white"/>
<path d="M403.481 534.015C405.081 532.201 407.337 531.701 408.922 533.058C409.179 533.272 409.55 532.786 409.308 532.558C407.48 531.001 404.852 531.687 403.039 533.729C402.782 534.029 403.224 534.314 403.481 534.015Z" fill="white"/>
<path d="M406.609 534.972C408.208 533.172 410.464 532.658 412.049 534.015C412.306 534.229 412.678 533.743 412.421 533.529C410.607 531.958 407.965 532.644 406.166 534.686C405.895 534.986 406.337 535.271 406.609 534.972Z" fill="white"/>
<path d="M293.897 498.686L288.713 515.251L297.124 519.449L305.278 505.041L293.897 498.686Z" fill="#FFB573"/>
<path d="M313.075 541.683C315.431 536.856 314.203 534.343 311.761 532.772C309.319 531.202 301.679 522.776 301.679 522.776C301.679 522.776 301.465 518.778 300.094 517.207C298.723 515.636 295.982 516.45 295.982 516.45L290.455 512.909C290.455 512.909 290.455 509.339 288.713 511.31C286.228 514.166 282.444 521.977 281.473 523.905L313.075 541.683Z" fill="#407BFF"/>
<path d="M313.532 539.712L307.72 536.528L282.344 522.648C282.016 522.477 282.344 521.991 282.687 522.162L284.401 523.105H284.472C285.138 522.722 285.721 522.211 286.188 521.601C286.654 520.992 286.995 520.295 287.19 519.552C287.386 518.81 287.432 518.036 287.325 517.275C287.219 516.515 286.963 515.783 286.571 515.122C286.385 514.822 286.942 514.537 287.114 514.837C287.943 516.268 288.177 517.968 287.766 519.57C287.355 521.173 286.331 522.55 284.915 523.405L288.456 525.304L313.832 539.184C314.16 539.398 313.846 539.884 313.532 539.712Z" fill="black"/>
<path d="M299.052 523.976C301.322 523.176 303.55 523.833 304.278 525.789C304.392 526.103 304.949 525.861 304.835 525.546C304.007 523.29 301.379 522.605 298.809 523.504C298.423 523.633 298.68 524.104 299.052 523.976Z" fill="white"/>
<path d="M301.222 526.289C303.493 525.489 305.721 526.146 306.435 528.103C306.563 528.417 307.12 528.174 307.006 527.86C306.178 525.604 303.55 524.918 300.98 525.818C300.594 525.946 300.851 526.418 301.222 526.289Z" fill="white"/>
<path d="M303.479 528.646C305.749 527.846 307.977 528.503 308.705 530.459C308.819 530.773 309.376 530.53 309.262 530.216C308.434 527.96 305.806 527.275 303.236 528.174C302.85 528.303 303.107 528.774 303.479 528.646Z" fill="white"/>
<path d="M355.972 298.252C357.775 320.273 360.875 342.169 365.254 363.826C366.796 371.832 368.576 380.4 370.595 389.53C362.441 442.152 384.875 518.178 384.875 518.178L398.241 517.878C398.241 517.878 402.782 432.912 402.71 388.43C402.596 315.602 396.056 246.13 396.056 246.13L359.699 245.987C359.699 245.987 352.987 256.84 355.972 298.252Z" fill="#263238"/>
<path opacity="0.2" d="M355.972 298.252C357.775 320.273 360.875 342.169 365.254 363.826C373.822 334.68 362.141 272.434 362.141 272.434L355.972 298.252Z" fill="black"/>
<path d="M399.597 520.962L400.211 515.25H382.404L383.218 520.962H399.597Z" fill="#263238"/>
<path d="M321.2 244.559L320.429 390.458C310.804 400.882 290.627 501.385 290.627 501.385L306.163 509.867C306.163 509.867 348.618 412.863 354.458 397.883C360.299 382.904 368.424 272.548 368.424 272.548L358.557 248.615L321.2 244.559Z" fill="#263238"/>
<path d="M307.206 513.323L309.976 508.296L289.399 497.772L287.257 503.113L307.206 513.323Z" fill="#263238"/>
<path d="M397.341 251.128C397.341 257.768 348.603 260.91 319.601 251.342C320.086 249.543 320.786 246.401 321.2 244.588C321.414 243.745 321.6 242.874 321.786 241.974C322.385 239.118 322.89 235.953 323.299 232.478C323.299 232.335 323.299 232.164 323.299 232.007C324.042 225.33 324.437 218.619 324.484 211.901C324.484 210.001 324.484 208.045 324.484 206.046C324.484 203.575 324.37 201.048 324.242 198.435C323.658 185.771 322.251 173.159 320.029 160.678C319.647 158.525 319.723 156.315 320.251 154.193C320.78 152.071 321.749 150.084 323.096 148.361C324.443 146.639 326.137 145.219 328.069 144.194C330.001 143.169 332.127 142.563 334.309 142.414C336.794 142.229 339.407 142.114 342.077 142.071C344.748 142.029 347.318 141.986 349.803 141.986C356.571 141.861 363.34 142.181 370.066 142.943L371.608 143.142C374.136 143.471 376.692 143.885 379.177 144.299C389.901 146.156 394.528 153.581 394.885 166.433C395.299 180.713 406.138 189.61 392.429 199.277C390.715 211.358 397.341 232.392 397.341 251.128Z" fill="#407BFF"/>
<path opacity="0.2" d="M324.556 211.872C324.556 209.973 324.556 208.017 324.556 206.017C324.556 203.547 324.442 201.019 324.313 198.406L335.58 175.672L324.556 211.872Z" fill="black"/>
<path opacity="0.2" d="M337.979 164.777L323.513 186.568C323.285 183.955 323.028 181.285 322.699 178.586L337.979 164.777Z" fill="black"/>
<path d="M349.86 141.957C356.729 154.024 372.879 161.25 372.879 161.25C375.064 155.852 374.307 147.184 371.666 143.114L370.123 142.914C363.397 142.152 356.628 141.833 349.86 141.957Z" fill="#FFB573"/>
<path d="M391.515 120.623C391.515 120.623 399.64 109.47 392.572 98.9314C385.503 88.3928 374.008 92.7767 374.008 92.7767L391.515 120.623Z" fill="#263238"/>
<path d="M371.823 146.698C371.878 146.896 371.965 147.084 372.08 147.255C374.407 150.939 371.88 154.309 367.796 154.01C367.407 153.985 367.02 153.933 366.639 153.852C365.191 153.564 363.871 152.824 362.869 151.739C359.775 148.429 356.434 145.359 352.873 142.557C358.914 139.315 361.113 127.82 361.67 120.637L371.052 132.575L372.808 135.174C371.956 136.628 371.275 138.176 370.78 139.787C370.372 140.936 370.254 142.167 370.436 143.373C370.617 144.579 371.094 145.721 371.823 146.698Z" fill="#FFB573"/>
<g opacity="0.2">
<path d="M370.823 139.744C371.318 138.133 371.998 136.585 372.851 135.132L371.094 132.604L365.197 132.733C366.244 135.628 368.223 138.094 370.823 139.744Z" fill="black"/>
</g>
<path d="M359.999 107.814C359.056 119.623 358.414 124.593 363.369 131.418C370.823 141.686 385.246 140.201 389.63 128.905C393.571 118.723 394.442 101.131 383.918 94.9045C373.393 88.6784 360.998 96.0183 360.056 107.756L359.999 107.814Z" fill="#FFB573"/>
<path d="M362.598 115.539C356.672 113.968 358.999 107.856 358.999 107.856L367.724 109.284C367.724 109.284 368.51 117.11 362.598 115.539Z" fill="#263238"/>
<path d="M386.488 95.9901C386.488 95.9901 386.331 102.53 378.334 102.873C370.337 103.216 370.923 115.468 362.055 113.183C351.102 110.327 355.258 101.017 357.9 96.9612C359.57 94.3765 377.492 78.9113 386.488 95.9901Z" fill="#263238"/>
<path d="M374.407 91.192C374.407 91.192 374.579 76.555 361.77 74.6843C349.989 72.9564 345.462 83.9092 345.876 97.3895C346.39 113.669 334.452 109.428 334.452 109.428C335.58 111.939 337.374 114.093 339.639 115.656C341.905 117.22 344.556 118.133 347.304 118.295C369.095 120.337 374.407 91.192 374.407 91.192Z" fill="#263238"/>
<path d="M359.242 95.3619C359.177 95.3826 359.107 95.3826 359.042 95.3619C359.003 95.3373 358.969 95.305 358.942 95.2669C358.916 95.2289 358.898 95.1859 358.888 95.1405C358.879 95.0951 358.879 95.0483 358.888 95.0029C358.897 94.9575 358.916 94.9145 358.942 94.8764C360.672 92.5132 362.959 90.6143 365.6 89.3487C368.241 88.083 371.153 87.4899 374.079 87.6221C374.126 87.624 374.172 87.635 374.214 87.6547C374.257 87.6744 374.295 87.7022 374.327 87.7367C374.359 87.7712 374.384 87.8116 374.4 87.8557C374.416 87.8997 374.424 87.9465 374.422 87.9934C374.424 88.0416 374.416 88.0897 374.398 88.1344C374.38 88.179 374.352 88.2192 374.316 88.2519C374.281 88.2846 374.239 88.3091 374.193 88.3237C374.147 88.3382 374.098 88.3425 374.05 88.3361C371.249 88.2059 368.458 88.7699 365.927 89.9782C363.396 91.1865 361.202 93.0015 359.542 95.2619C359.502 95.2996 359.455 95.3281 359.403 95.3454C359.351 95.3627 359.296 95.3683 359.242 95.3619Z" fill="#407BFF"/>
<path d="M384.703 126.007C384.703 126.007 378.991 123.408 377.692 120.909C377.692 120.909 376.849 125.393 379.862 127.035C380.649 127.508 381.587 127.665 382.485 127.475C383.384 127.284 384.176 126.759 384.703 126.007Z" fill="white"/>
<path d="M379.42 113.083C379.291 114.04 379.691 114.883 380.305 114.968C380.919 115.054 381.547 114.354 381.733 113.397C381.919 112.441 381.476 111.598 380.848 111.512C380.219 111.427 379.62 112.127 379.42 113.083Z" fill="#263238"/>
<path d="M389.101 114.654C388.973 115.611 389.373 116.453 389.987 116.539C390.601 116.625 391.229 115.925 391.415 114.982C391.6 114.04 391.158 113.183 390.529 113.097C389.901 113.012 389.301 113.711 389.101 114.654Z" fill="#263238"/>
<path d="M390.201 113.112L392.572 112.769C392.572 112.769 391.144 114.397 390.201 113.112Z" fill="#263238"/>
<path d="M385.56 114.468C385.56 114.468 386.859 117.224 388.33 119.666C388.448 119.851 388.521 120.06 388.545 120.277C388.569 120.494 388.543 120.714 388.468 120.92C388.394 121.125 388.273 121.311 388.116 121.463C387.958 121.614 387.768 121.728 387.559 121.794C386.55 122.101 385.511 122.297 384.46 122.379L385.56 114.468Z" fill="#ED893E"/>
<path d="M354.701 115.339C354.996 116.376 355.507 117.338 356.202 118.163C356.896 118.987 357.757 119.655 358.728 120.123C361.227 121.208 362.926 118.538 362.598 115.539C362.312 112.84 360.656 109.027 357.971 109.227C355.286 109.427 353.858 112.612 354.701 115.339Z" fill="#FFB573"/>
<path d="M360.941 118.424C360.941 118.74 360.847 119.05 360.672 119.313C360.496 119.576 360.246 119.781 359.954 119.902C359.662 120.023 359.34 120.054 359.03 119.993C358.72 119.931 358.435 119.779 358.211 119.555C357.987 119.331 357.835 119.046 357.773 118.736C357.712 118.426 357.743 118.104 357.864 117.812C357.985 117.52 358.19 117.27 358.453 117.094C358.716 116.919 359.026 116.825 359.342 116.825C359.766 116.825 360.173 116.993 360.473 117.293C360.773 117.593 360.941 118 360.941 118.424Z" fill="white"/>
<path d="M376.821 109.27C376.896 109.271 376.97 109.256 377.039 109.226C377.107 109.197 377.169 109.153 377.22 109.099C377.697 108.575 378.291 108.172 378.954 107.924C379.617 107.675 380.33 107.589 381.033 107.671C381.18 107.692 381.33 107.657 381.452 107.572C381.574 107.487 381.659 107.359 381.69 107.214C381.715 107.066 381.681 106.915 381.596 106.792C381.51 106.669 381.38 106.585 381.233 106.557C380.342 106.448 379.438 106.556 378.597 106.871C377.757 107.187 377.005 107.702 376.407 108.37C376.302 108.477 376.243 108.621 376.243 108.77C376.243 108.92 376.302 109.063 376.407 109.17C376.517 109.269 376.659 109.325 376.806 109.327L376.821 109.27Z" fill="#263238"/>
<path d="M393.557 110.984C393.665 110.989 393.773 110.964 393.868 110.91C393.962 110.857 394.039 110.777 394.09 110.681C394.141 110.585 394.164 110.477 394.155 110.369C394.147 110.26 394.108 110.157 394.042 110.07C393.498 109.355 392.79 108.781 391.977 108.398C391.164 108.016 390.271 107.835 389.373 107.871C389.224 107.885 389.086 107.958 388.99 108.073C388.894 108.187 388.847 108.335 388.859 108.485C388.877 108.635 388.952 108.773 389.069 108.868C389.186 108.964 389.336 109.011 389.487 108.999C390.195 108.981 390.898 109.132 391.536 109.44C392.175 109.748 392.73 110.204 393.157 110.77C393.205 110.831 393.265 110.882 393.334 110.919C393.403 110.956 393.479 110.978 393.557 110.984Z" fill="#263238"/>
<path d="M380.519 111.527L382.89 111.198C382.89 111.198 381.462 112.812 380.519 111.527Z" fill="#263238"/>
<path d="M342.72 159.108C338.636 169.218 334.152 178.985 329.34 188.739C326.941 193.622 324.427 198.449 321.771 203.276C319.115 208.102 316.331 212.858 313.018 217.799L311.704 219.669C311.261 220.283 310.776 220.94 310.276 221.597C309.776 222.254 309.162 223.025 308.548 223.639C308.291 223.967 307.805 224.424 307.434 224.81L306.834 225.395L306.449 225.738C304.521 227.38 302.536 229.137 300.565 230.908L288.585 241.503C280.559 248.643 272.434 255.598 264.052 262.352L257.054 255.612C263.523 246.958 270.278 238.619 277.203 230.379C280.673 226.267 284.172 222.182 287.771 218.127C289.584 216.099 291.383 214.086 293.311 212.029C293.425 211.901 293.583 211.744 293.64 211.658L293.725 211.53C293.807 211.424 293.884 211.315 293.954 211.201C294.197 210.858 294.411 210.559 294.711 210.087C295.011 209.616 295.268 209.245 295.553 208.745C295.839 208.245 296.139 207.774 296.439 207.317C298.823 203.19 301.065 198.463 303.336 193.822C305.606 189.181 307.763 184.355 309.962 179.542C314.246 169.96 318.644 160.222 323.056 150.697L342.72 159.108Z" fill="#407BFF"/>
<path d="M258.468 253.655C258.468 253.655 267.036 257.768 263.966 262.38C260.896 266.993 254.184 269.092 251.771 272.89C249.357 276.689 244.531 286.642 243.46 286.571C242.389 286.499 245.659 271.748 246.773 269.178C247.887 266.607 253.027 260.61 253.027 260.61L258.468 253.655Z" fill="#FFB573"/>
<path d="M246.044 271.206C246.044 271.206 242.76 276.004 242.574 278.131C242.329 280.982 241.793 283.8 240.975 286.542C240.347 287.799 243.26 286.928 244.274 282.83C245.07 278.989 245.661 275.109 246.044 271.206Z" fill="#FFB573"/>
<path d="M263.38 260.353C263.121 262.393 262.398 264.347 261.267 266.065C259.479 268.682 257.994 271.494 256.84 274.447C255.926 276.932 253.484 277.831 252.813 276.732C252.142 275.632 254.455 271.148 255.312 267.464C256.169 263.78 263.38 260.353 263.38 260.353Z" fill="#FFB573"/>
</svg>
